<svg xmlns="http://www.w3.org/2000/svg" viewBox="0 0 487.23 104.51"><defs><style>.cls-1{fill:#fff;}</style></defs><g id="Слой_2" data-name="Слой 2"><g id="Слой_1-2" data-name="Слой 1"><path class="cls-1" d="M134.76,61.83c0-3-1.67-4.4-5.46-6L127.22,55c-5.69-2.43-9.25-5.46-9.25-11,0-6.08,5-9.77,12.22-9.77a16,16,0,0,1,9.11,2.68l-.37,7H135l-1.36-7.81,3.75,1.59v2.59c-2.65-2.24-4.58-3.21-7.28-3.21-3.48,0-6.19,1.94-6.19,5.29,0,3,1.87,4.65,5.28,6.06l2.23.95c6.71,2.8,9.38,5.72,9.38,10.77,0,6.1-4.89,10.13-12.86,10.13a21.36,21.36,0,0,1-10.63-2.72l.31-7.47h4l1.34,8.17-3.68-1.35V64.42c3.24,2,5.19,3,8.61,3C132.15,67.43,134.76,65.24,134.76,61.83Z"/><path class="cls-1" d="M176.91,52.25c0,11.62-7.81,18-16.09,18s-16.12-6.1-16.12-18c0-11.62,7.9-18,16.12-18S176.91,40.34,176.91,52.25ZM160.82,67.47c6.23,0,8.76-7,8.76-15.22S167.05,37,160.82,37,152,44.1,152,52.25,154.6,67.47,160.82,67.47Z"/><path class="cls-1" d="M208.65,64.37v2.75l-3.34.74L206.83,60h3.55l-.21,7.72a22.06,22.06,0,0,1-10.64,2.56c-10.2,0-17.72-6.7-17.72-18s8-18,17.87-18a20.05,20.05,0,0,1,10,2.52l.21,7.76h-3.55l-1.54-7.92,3.34.77v3C205.49,37.89,203,37,200.61,37c-6.24,0-11.48,5-11.48,15.28S194,67.49,200.3,67.49A13.31,13.31,0,0,0,208.65,64.37Z"/><path class="cls-1" d="M214.12,37.54V35.11h15.59v2.43l-7.2.77h-1.28Zm8.39,28.65,7.2.78V69.4H214.12V67l7.11-.78Zm-4-15.06c0-5.32,0-10.7-.15-16h7c-.16,5.22-.16,10.59-.16,16v2.23c0,5.34,0,10.71.16,16h-7c.15-5.22.15-10.6.15-16Z"/><path class="cls-1" d="M232.05,67l5.25-.78h1l5.28.78V69.4H232.05Zm15-32h4.23L263.09,69.4h-6.86l-9.59-29.33,1.57-1.33L238,69.4h-2.75Zm-5.8,21.17h13.95l1,2.7h-15.8ZM250.72,67l6.17-.77h2.26l6.53.77V69.4h-15Z"/><path class="cls-1" d="M268,37.54V35.11h15.78v2.43l-7.19.77h-1.47Zm7.79,28.65V69.4H268V67l7.12-.78Zm-3.51-31.08h7c-.16,5.29-.16,10.66-.16,16v3.16c0,4.47,0,9.85.16,15.11h-7c.15-5.29.15-10.66.15-15.48V51.13C272.4,45.74,272.4,40.37,272.25,35.11Zm22.47,24.36-.51,9.93H275.76V66.62h16.68L289,69.4l2-9.93Z"/><path class="cls-1" d="M329.14,64.37v2.75l-3.33.74L327.33,60h3.55l-.21,7.72A22.1,22.1,0,0,1,320,70.27c-10.19,0-17.71-6.7-17.71-18s8-18,17.87-18a20.08,20.08,0,0,1,10.05,2.52l.21,7.76h-3.55l-1.54-7.92,3.33.77v3C326,37.89,323.51,37,321.1,37c-6.23,0-11.47,5-11.47,15.28s4.86,15.22,11.17,15.22A13.29,13.29,0,0,0,329.14,64.37Z"/><path class="cls-1" d="M366.71,52.25c0,11.62-7.81,18-16.09,18s-16.11-6.1-16.11-18c0-11.62,7.89-18,16.11-18S366.71,40.34,366.71,52.25ZM350.62,67.47c6.23,0,8.77-7,8.77-15.22S356.85,37,350.62,37s-8.79,7.09-8.79,15.24S344.4,67.47,350.62,67.47Z"/><path class="cls-1" d="M369.81,37.54V35.11h7.79v3.2h-.67Zm8.83,28.65,7.12.78V69.4H369.81V67l7.12-.78Zm-4.4-15.06c0-5.32,0-10.7-.15-16h7c-.16,5.22-.16,10.59-.16,16V53c0,5.74,0,11.11.16,16.44h-7c.15-5.22.15-10.6.15-16Zm17-16,3.05,2.76H377.6V35.11H396l.36,9h-3.62Zm-1.81,18H377.6V50.44h11.8Zm-1.61-2,.77-5.21h2.67v12.2h-2.67l-.77-5.47Z"/><path class="cls-1" d="M399.32,37.54V35.11h7.78v3.2h-.66Zm8.83,28.65,7.12.78V69.4H399.32V67l7.12-.78Zm-4.4-15.06c0-5.32,0-10.7-.15-16h7c-.16,5.22-.16,10.59-.16,16V53c0,5.74,0,11.11.16,16.44h-7c.15-5.22.15-10.6.15-16Zm17-16,3,2.76H407.1V35.11h18.44l.36,9h-3.62Zm-1.81,18H407.1V50.44h11.81Zm-1.61-2,.77-5.21h2.67v12.2h-2.67l-.77-5.47Z"/><path class="cls-1" d="M428.83,37.54V35.11h7.78v3.2H436Zm7.78,28.65V69.4h-7.78V67l7.12-.78Zm-3.35-15.06c0-5.32,0-10.7-.15-16h7c-.16,5.22-.16,10.59-.16,16V53c0,5.74,0,11.11.16,16.44h-7c.15-5.22.15-10.6.15-16Zm16.8-16,3,2.76H436.61V35.11h18.27l.36,9h-3.62Zm-1.92,18H436.61V50.44h11.53Zm8.13,7.19-.36,9.05h-19.3V66.66h17.53l-3.05,2.74,1.57-9.05Zm-9.74-9.21.77-5.21H450V57.61H447.3l-.77-5.47Z"/><path class="cls-1" d="M459.79,37.54V35.11h7.78v3.2h-.67Zm7.78,28.65V69.4h-7.78V67l7.11-.78Zm-3.35-15.06c0-5.32,0-10.7-.15-16h7c-.16,5.22-.16,10.59-.16,16V53c0,5.74,0,11.11.16,16.44h-7c.15-5.22.15-10.6.15-16Zm16.8-16,3,2.76H467.57V35.11h18.26l.36,9h-3.61Zm-1.92,18H467.57V50.44H479.1Zm8.13,7.19-.36,9.05h-19.3V66.66H485.1l-3.05,2.74,1.56-9.05Zm-9.75-9.21.78-5.21h2.67V57.61h-2.67l-.78-5.47Z"/><path class="cls-1" d="M104.47,52.32A52.24,52.24,0,1,1,54.16,0,52.21,52.21,0,0,1,104.47,52.32Zm-52.08-50a49.93,49.93,0,1,0,49.81,51A49.87,49.87,0,0,0,52.39,2.33Z"/><path class="cls-1" d="M100.33,52.36A48.1,48.1,0,1,1,51.76,4.13,48.08,48.08,0,0,1,100.33,52.36ZM52.17,99.6A47.36,47.36,0,1,0,4.88,52.27,47.33,47.33,0,0,0,52.17,99.6Z"/><path class="cls-1" d="M52.35,19.1A33.15,33.15,0,1,1,19.09,52.18,33.14,33.14,0,0,1,52.35,19.1Zm-.19,65.51A32.37,32.37,0,1,0,19.85,52.1,32.34,32.34,0,0,0,52.16,84.61Z"/><path class="cls-1" d="M75.71,82.06a2.91,2.91,0,0,0-.37.54c-.21.56-.57.54-1,.33a3.32,3.32,0,0,0-3.59.66c.5.79,1,1.56,1.48,2.3.16.24.78-.1.85-.51a1.16,1.16,0,0,0-.09-.69c-.21-.38-.09-.56.23-.79s.64-.33.92.16c.52.88,1.09,1.73,1.67,2.57.22.32.18.51-.14.67s-.53.55-.88.1S74,86.58,73.39,87a.53.53,0,0,0-.16.45c.49.81,1,1.61,1.55,2.43,1.46-.8,2.48-1.81,2.38-3.55,0-.7.49-.67.9-.74s.45.36.49.65c.09.69.17,1.38.21,2.08a.85.85,0,0,1-.19.6,2.87,2.87,0,0,1-.69.49L72.22,93c-.76-.68-.73-.76-.13-1.48a1,1,0,0,0,.13-.9c-1-1.68-2.08-3.31-3.14-5a.78.78,0,0,0-1.22-.26c-.53.36-.65,0-.88-.36s0-.55.26-.75c1.78-1.13,3.55-2.28,5.34-3.4.2-.12.53-.25.7-.17C74.09,81.14,74.87,81.6,75.71,82.06Z"/><path class="cls-1" d="M86.47,76.76c-1.08-.66-1.32-.62-1.89.34l2.49,1.78a3.5,3.5,0,0,0,1-3.95c-.28-.73-.21-.85.85-1.38.48.9,1,1.8,1.44,2.72.06.12-.09.37-.19.52l-3.72,5.28c-.59.84-.59.84-1.51.08.56-1.31.56-1.31-.62-2.15l-3.67-2.62c-.88-.63-1-.61-1.75.09a.59.59,0,0,1-.52,0,3.34,3.34,0,0,1-.65-.5l1.12-1.6c1-1.37,1.92-2.74,2.91-4.09A1,1,0,0,1,82.5,71c.82,0,1.63.17,2.45.27a.81.81,0,0,1,0,.24c-.19,1.09-.19,1.1-1.31,1.14a3.13,3.13,0,0,0-2.54,1.7c-.06.08.05.36.16.45.66.49,1.35,1,2,1.43.59-.45.71-.82.39-1.26-.53-.74-.53-.74.16-1.56,1,.72,2.05,1.43,3.06,2.18.1.07.11.39,0,.55A3.41,3.41,0,0,1,86.47,76.76Z"/><path class="cls-1" d="M37.27,17.52A4,4,0,0,1,30.8,21a6.9,6.9,0,0,1-2.69-4.8,4.23,4.23,0,0,1,2.05-4,4,4,0,0,1,4.52.48A6.75,6.75,0,0,1,37.27,17.52Zm-2.11,1.64a9.45,9.45,0,0,0-3.23-5.48.84.84,0,0,0-1.19,0,1.66,1.66,0,0,0-.42,1.19,9,9,0,0,0,2.89,5c.37.33.87.58,1.3.25A3.22,3.22,0,0,0,35.16,19.16Z"/><path class="cls-1" d="M35.63,85.26c.08,2.21-1.94,5.3-4.27,5.92a4.08,4.08,0,0,1-4.95-3.29,6.74,6.74,0,0,1,4-6.38A3.93,3.93,0,0,1,35.63,85.26Zm-7.06,3c0,1.21.65,1.64,1.5,1.2a2.12,2.12,0,0,0,.68-.49,26.27,26.27,0,0,0,2-2.66,8.28,8.28,0,0,0,.74-2.13.78.78,0,0,0-.43-1,1.51,1.51,0,0,0-1.13.06,5.37,5.37,0,0,0-1.39,1.26A7.78,7.78,0,0,0,28.57,88.25Z"/><path class="cls-1" d="M69.1,19.9c.52,0,1.07.13,1.16,0a4,4,0,0,0,.34-1.35c0-.07-.12-.18-.2-.23-.54-.28-1.08-.57-1.63-.83-.4-.19-1,.18-1.33.84-.25.45.11.56.39.71s.24.46.08.71-.18.64-.63.46l-.17-.1-3.28-1.71.57-1a1.47,1.47,0,0,0,2-.38c1.8-1.74,3.61-3.47,5.4-5.22a.6.6,0,0,1,.8-.12,9.94,9.94,0,0,1,1.21.64.73.73,0,0,1,.31.58c-.33,2.18-.71,4.34-1.07,6.51a6.32,6.32,0,0,0-.19,1.55,4.29,4.29,0,0,0,.54,1.21l.24,0-.51,1.08c-1.47-.75-2.88-1.46-4.27-2.19a.51.51,0,0,1-.13-.46A3.53,3.53,0,0,1,69.1,19.9Zm.23-3.63c.22.16.33.26.45.34,1.1.64,1.1.64,1.31-.59,0-.22.11-.42.15-.64s.06-.59.09-.93Z"/><path class="cls-1" d="M22.23,21.57c-.16,1.22-.16,1.22-1.25,1.17a2.77,2.77,0,0,0-2.33.79c-.35.38-.61.83-.24,1.35s.83.33,1.24.16c1.1-.45,2.18-1,3.27-1.45a2.72,2.72,0,0,1,3,.28A3.34,3.34,0,0,1,25.8,29a4.21,4.21,0,0,1-.48.35c-.4.27-.82.44-1,1a.83.83,0,0,1-1.27.47,10,10,0,0,0-1.74-.54c-.3-.09-.65-.15-.5-.57s.11-.84.76-.86a7.32,7.32,0,0,0,2.29-.36,3.16,3.16,0,0,0,1.33-1.16,1.33,1.33,0,0,0-.07-1.11c-.2-.4-.63-.35-1-.16-1.16.53-2.33,1.05-3.51,1.54a2.85,2.85,0,0,1-3.64-1.42,3.18,3.18,0,0,1,.95-3.86,4,4,0,0,0,1.22-1.16,1,1,0,0,1,.87-.29C20.73,21,21.46,21.32,22.23,21.57Z"/><path class="cls-1" d="M41.3,87.13c0-.21,0-.38,0-.56,0-.52.29-.59.74-.5,2.14.4,4.27.8,6.42,1.14a.83.83,0,0,1,.69.67c.26.69.48,1.39.71,2.08-.82.61-1.17.57-1.67-.3A3.4,3.4,0,0,0,45.73,88c-.44-.09-.71,0-.76.51s-.21,1-.26,1.55c0,.34-.29.78.38.89a.86.86,0,0,0,1.09-.66.71.71,0,0,1,.49-.39c.73,0,.83.09.71.83-.19,1.11-.39,2.21-.59,3.38l-1.13-.17c0-.3,0-.54,0-.77a.75.75,0,0,0-.71-.85c-.43-.09-.71,0-.74.53S44,93.93,44,94.49a.74.74,0,0,0,.65.94.71.71,0,0,1,.49,1.13.44.44,0,0,1-.35.21c-1.66-.29-3.32-.61-5.05-.94l.22-1.11c1.43-.13,1.43-.14,1.7-1.59s.57-3,.86-4.54C42.63,87.74,42.56,87.64,41.3,87.13Z"/><path class="cls-1" d="M56,96.23c1.34-.53,1.35-.58,1.06-2s-.54-3-.8-4.43c-.2-1.11-.19-1.11-1.32-1.12a2.38,2.38,0,0,1-.34,0l-.14-1.08c.69-.14,1.36-.29,2-.4l5-.85c.17,0,.42-.06.5,0,.57.66,1.12,1.33,1.62,2,0,0-.34.47-.59.61a.76.76,0,0,1-.64,0,13.22,13.22,0,0,0-1.85-1,4.29,4.29,0,0,0-1.67,0c-.11,0-.28.27-.27.4A20.3,20.3,0,0,0,59,90.58a.72.72,0,0,0,.6.27,1.49,1.49,0,0,0,.74-.56c.12-.21,0-.54,0-.84l1.16-.27c.18,1,.36,1.9.53,2.83,0,.2,0,.39.1.58.08.37.24.73-.33.85s-.81.06-.94-.53-.37-.76-1.57-.53c.16.82.26,1.65.5,2.45s.86.46,1.38.43c0,.06.11.1.13.16.32,1,.32,1-.78,1.21s-2.23.35-3.34.56S56,97.4,56,96.23Z"/><path class="cls-1" d="M48.85,13.17l1.41.29c-.1,2.4-1.47,3.92-3.49,3.92a4.11,4.11,0,0,1-3.65-2,6.26,6.26,0,0,1-.44-6.27,3.13,3.13,0,0,1,4-1.72c.6-.69,1-.67,1.46.1.37.61.71,1.24,1.09,1.85.16.26.35.52-.05.68s-.65.66-1.13.14a7.74,7.74,0,0,0-1.33-1.23c-1-.67-1.72-.26-1.86.91a8.39,8.39,0,0,0,1,5c.29.54.68,1.07,1.4,1a1.49,1.49,0,0,0,1.25-1.26C48.62,14.16,48.71,13.74,48.85,13.17Z"/><path class="cls-1" d="M21.07,72c2.26,0,3.24.74,3.77,2.56a.55.55,0,0,0,.34.31c.61.16.77.47.45,1s-.81,1.34-1.22,2c-.16.25-.26.6-.68.3s-.84-.37-.6-1a7.06,7.06,0,0,0,.45-1.81c.09-1-.37-1.4-1.34-1.14A7.32,7.32,0,0,0,17.62,78a1.13,1.13,0,0,0,1.08,1.68,5.94,5.94,0,0,0,1.6-.26c.38-.1.54-.05.63.37.23,1.06.15,1.2-1,1.37A3.4,3.4,0,0,1,16.47,80,4,4,0,0,1,16,75.67,6.24,6.24,0,0,1,21.07,72Z"/><path class="cls-1" d="M76.92,24.89c1.22.86,1.22.85,2.4-.17l3.46-3c.72-.63.77-.76.21-1.5-.3-.4,0-.52.2-.72s.46-.48.76-.13c1,1.22,2.07,2.46,3.1,3.69,0,0,0,.08,0,.17a2.17,2.17,0,0,0-.37.32c-.32.33-.6.37-.92,0a.73.73,0,0,0-1.14-.12l-4.79,4.12a1.72,1.72,0,0,0-.17.23,3.29,3.29,0,0,0,3.52,1.4,1,1,0,0,1,1.18,1,.4.4,0,0,1-.24.31c-1,.28-2,.55-3,.79a.55.55,0,0,1-.45-.18c-1.56-1.8-3.11-3.62-4.7-5.47Z"/><path class="cls-1" d="M56,8.11C55.92,6.94,56,6.88,57.07,7s2.34.3,3.5.44c.36,0,.81,0,.8.53s-.11.9-.78.81a.64.64,0,0,0-.82.56q-.37,3-.73,6a.61.61,0,0,0,.46.75c.86.29.85.31.64,1.38l-3-.33c-.37-.05-.73-.13-1.1-.16-1.19-.09-1.2-.09-1-1.32a1.7,1.7,0,0,1,.34-.07c1,0,1.12-.1,1.25-1.09.22-1.73.41-3.46.59-5.19C57.29,8.51,57.22,8.45,56,8.11Z"/><path class="cls-1" d="M11,63.74a7,7,0,0,0,.05-2.07,5.88,5.88,0,0,0-1.18-1.51,5.8,5.8,0,0,0,1.87-.51c.46-.33.68-1,1.15-1.75a2.63,2.63,0,0,0,2.8,2.25,2.87,2.87,0,0,0-1.06,3.5A2.68,2.68,0,0,0,11,63.74Z"/><path class="cls-1" d="M93.74,42a11.5,11.5,0,0,0-1.19,3.68c-1.14-.79-2.29-1.08-3.52-.07.2-1.42.06-2.61-1.31-3.4a3.65,3.65,0,0,1,.85-.23c1,0,1.52-.65,1.9-1.47a3,3,0,0,1,.38-.51C91.31,41.43,92.13,42.27,93.74,42Z"/><path class="cls-1" d="M88.07,60.75a3.18,3.18,0,0,1,.84-.24c1,0,1.53-.61,1.88-1.46a6.38,6.38,0,0,1,.36-.57,2.66,2.66,0,0,0,2.94,2.14,6.78,6.78,0,0,0-1.27,1.6,5.72,5.72,0,0,0,0,1.88,5.89,5.89,0,0,0-1.79-.6,7.13,7.13,0,0,0-2,.69C89.81,62.69,89.31,61.64,88.07,60.75Z"/><path class="cls-1" d="M92,49.22a5.44,5.44,0,0,1,.53.88c.28.91,1,1.11,1.8,1.19a2,2,0,0,1,.52.19,2.68,2.68,0,0,1-.26.47,4,4,0,0,1-.5.51,1,1,0,0,0-.34,1.11,11.46,11.46,0,0,1,.13,1.35,5.77,5.77,0,0,0-1.8-.71,6.11,6.11,0,0,0-1.87.71,5.89,5.89,0,0,1,.14-1.11,1.26,1.26,0,0,0-.41-1.45,4.89,4.89,0,0,1-.75-.94A2.67,2.67,0,0,0,92,49.22Z"/><path class="cls-1" d="M10.22,54.44a7.38,7.38,0,0,0,0-2.09c-.19-.53-.75-.92-1.19-1.43a5.93,5.93,0,0,0,1.88-.54,5.78,5.78,0,0,0,1.06-1.6,5.73,5.73,0,0,0,1,1.62A6.36,6.36,0,0,0,15,51c-1.25.88-1.77,1.93-1.17,3.39C12.55,53.66,11.4,53.39,10.22,54.44Z"/><path class="cls-1" d="M10.4,41.48c1.53.23,2.29-.61,2.82-1.93.59,1.21,1.29,2.19,2.84,1.93l.06.2A5.69,5.69,0,0,0,15,43.13a6.91,6.91,0,0,0,0,2,2.49,2.49,0,0,0-3.42,0L11.39,45a5.92,5.92,0,0,1,.14-1,1.3,1.3,0,0,0-.43-1.46,8.51,8.51,0,0,1-.75-.83Z"/><path class="cls-1" d="M55,31A15.94,15.94,0,0,1,66.1,35.15a16.86,16.86,0,0,1,5.14,8.46,17.12,17.12,0,0,1,.26,7.7,18.65,18.65,0,0,1-3.15,7.09,16.26,16.26,0,0,1-8,6.18,17.06,17.06,0,0,1-8.68.83,17.31,17.31,0,0,1-10-5.3A17.65,17.65,0,0,1,38.19,41.3a16.25,16.25,0,0,1,9.68-9A18.1,18.1,0,0,1,55,31ZM43.87,36.37l.12.13c.57-.34,1.14-.69,1.72-1a5.56,5.56,0,0,1,4.46-.65c1.51.47,2.09,1.77,2.56,3.08s.84,3,1.31,4.42a8.35,8.35,0,0,0,5.87,5.46c1.92.61,3.93,1,5.86,1.51,2.45.72,3.24,1.28,3,3.89,0,.37,0,.74,0,1.11H69a5.38,5.38,0,0,0,.2-.65c.37-1.68.85-3.34,1-5a12,12,0,0,0-.92-5.56,16.63,16.63,0,0,0-4.44-6.82,14.81,14.81,0,0,0-7.66-3.62,16.79,16.79,0,0,0-11.06,1.78A6,6,0,0,0,43.87,36.37ZM39,45.05c-1.65,5.5.93,13.21,7,17,5.4,3.35,12,2.76,14.73.83C55,64.59,49.64,63.87,45,60S38.53,51,39,45.05Z"/><path class="cls-1" d="M42.93,33.91c-.52.46-1,.91-1.55,1.39a17.63,17.63,0,0,0-4.79,8.89A18.14,18.14,0,0,0,37.81,56a18,18,0,0,0,9.84,9.51,17,17,0,0,0,10.07.9c6.82-1.43,11.36-5.5,13.76-12a15.85,15.85,0,0,0,.83-6.76c0-.45,0-.91,0-1.29a18.32,18.32,0,0,1-8.91,20c-7.64,4.62-15,3-22.09-1.72l-.14.26a9,9,0,0,0,1.12,1.18,17.69,17.69,0,0,0,6.26,2.81,19.18,19.18,0,0,0,7.24.62A16.55,16.55,0,0,0,63.18,67c1.22-.79,2.43-1.6,3.65-2.4.06,0,.14-.06.34,0l-1.46,2.31.17.12c4.4-2.91,6.9-7.14,8.33-12.13l.15,0c-.09.46-.16.94-.28,1.39a19.09,19.09,0,0,1-3.69,7.33,26.07,26.07,0,0,1-6.16,5.21,32.14,32.14,0,0,1-6.92,3.75,19.8,19.8,0,0,1-8.68,1,18.22,18.22,0,0,1-8.7-3.23,27.1,27.1,0,0,1-3.1-2.87c-.31-.3-.54-.5-1-.27-.73.37-1.51.67-2.25,1a2.6,2.6,0,0,1-2.44-.05,6,6,0,0,1-3.08-7c.29.76.51,1.43.81,2.06a7.1,7.1,0,0,0,.88,1.51,2,2,0,0,0,2.77.62c1.92-1.1,3.81-2.26,5.69-3.43.72-.45.7-.49.21-1.21a22,22,0,0,1-3.67-8.5A16.9,16.9,0,0,1,34.61,47a19.69,19.69,0,0,1,3.78-9.1,14.36,14.36,0,0,1,4.37-4.2Z"/><path class="cls-1" d="M82.28,45.28C85.59,58.57,80,75,64.06,81.38A31.1,31.1,0,0,1,23.65,64.66a30.08,30.08,0,0,1,.19-24.41,27.48,27.48,0,0,1,8.62-11.12l-2.05,2.41A29.24,29.24,0,0,0,24.69,42.2a28,28,0,0,0-.88,12.41,30.41,30.41,0,0,0,9.3,18.08,27.69,27.69,0,0,0,11.36,6.65A29.43,29.43,0,0,0,78.23,66.56a29.85,29.85,0,0,0,3.6-8.32,23.56,23.56,0,0,0,.77-8.6C82.46,48.19,82.39,46.73,82.28,45.28Z"/><path class="cls-1" d="M30.93,69.27a5.21,5.21,0,0,1,1.33.2,3.68,3.68,0,0,1,1.33.86,26.48,26.48,0,0,0,5.46,4.44,28,28,0,0,0,9.58,3.61,27.1,27.1,0,0,0,8.85.18,28,28,0,0,0,12.51-5,29.8,29.8,0,0,0,6.13-6c.81-1,1.49-2.2,2.23-3.31a2.86,2.86,0,0,1,.42-.5c-2.56,7.5-13.2,16-24.32,16.28C44.9,80.2,37,76.77,30.82,69.43Z"/><path class="cls-1" d="M26.55,62.05A28.48,28.48,0,0,1,24.69,45.7c1.53-8.2,6.16-14.39,9.71-16.92a1.54,1.54,0,0,1-.22.41,34.29,34.29,0,0,0-4.81,6.23,23.47,23.47,0,0,0-3.11,7.25,29.17,29.17,0,0,0-.92,9.39,23.12,23.12,0,0,0,1.52,7.24A2.48,2.48,0,0,1,26.55,62.05Z"/><path class="cls-1" d="M35.57,39c-.91,2.32-2.09,4.54-2.12,7.16l1.12-2,.21,0c-.14.86-.24,1.73-.41,2.58a15.78,15.78,0,0,0-.06,6c.16.92.38,1.83.59,2.75a.85.85,0,0,1-.4,1c-.62.36-1.21.77-1.8,1.17-.42.28-.63.12-.65-.32,0-1.87-.18-3.74-.1-5.6A34.74,34.74,0,0,1,33.26,44a14.25,14.25,0,0,1,2.18-4.91A.45.45,0,0,1,35.57,39Z"/></g></g></svg>